<svg viewBox="0 0 100 100" xmlns="http://www.w3.org/2000/svg">
  <!-- Leaves (Money Tree 5-lobe style) -->
  <path d="M 50 45 C 30 45, 20 25, 35 15 C 45 15, 50 35, 50 45 Z" fill="#4ade80"/>
  <path d="M 50 45 C 70 45, 80 25, 65 15 C 55 15, 50 35, 50 45 Z" fill="#4ade80"/>
  <path d="M 50 45 C 40 20, 50 5, 50 5 C 60 20, 50 45, 50 45 Z" fill="#22c55e"/>
  
  <!-- Pot Body -->
  <path d="M 25 45 L 75 45 L 65 90 L 35 90 Z" fill="#e89a6c"/>
  
  <!-- Pot Rim -->
  <rect x="20" y="45" width="60" height="10" rx="4" fill="#d97a4a"/>
  
  <!-- Cute Face -->
  <path d="M 40 65 Q 43 62 46 65" fill="none" stroke="#5c3a21" stroke-width="3" stroke-linecap="round"/>
  <path d="M 54 65 Q 57 62 60 65" fill="none" stroke="#5c3a21" stroke-width="3" stroke-linecap="round"/>
  <path d="M 46 72 Q 50 76 54 72" fill="none" stroke="#5c3a21" stroke-width="3" stroke-linecap="round"/>
</svg>